<svg width="369" height="90" viewBox="0 0 369 90" fill="none" xmlns="http://www.w3.org/2000/svg">
<g clip-path="url(#clip0_1_55)">
<path d="M101.695 46.7647V62.4234H97.1718V18.9271H113.228C116.012 18.9271 118.166 19.3579 119.69 20.2196C121.182 21.0812 122.242 22.5062 122.872 24.4946C123.501 26.5162 123.816 29.3828 123.816 33.0944C123.816 36.5079 123.518 39.1922 122.922 41.1475C122.292 43.1359 121.281 44.5609 119.889 45.4225C118.497 46.3173 116.625 46.7647 114.272 46.7647H101.695ZM101.695 42.8376H113.576C115.664 42.8376 117.105 42.6388 117.901 42.2411C118.696 41.8103 119.094 41.0481 119.094 39.9544V25.5882C119.094 24.4946 118.696 23.7324 117.901 23.3016C117.105 22.8708 115.664 22.6553 113.576 22.6553H101.695V42.8376ZM144.197 27.0795C147.213 27.0795 149.55 27.3447 151.207 27.8749C152.897 28.4383 154.09 29.3496 154.786 30.6089C155.482 31.8683 155.83 33.6247 155.83 35.8782V62.4234H153.941L152.598 58.9437C150.975 60.3355 149.168 61.3463 147.18 61.976C145.159 62.6388 142.756 62.9702 139.972 62.9702C136.26 62.9702 133.642 62.2245 132.118 60.7332C130.627 59.2419 129.881 56.6736 129.881 53.0282C129.881 49.449 130.295 46.947 131.124 45.522C131.952 44.1301 133.709 43.2022 136.393 42.7382C139.077 42.3074 143.833 42.092 150.66 42.092H151.356V31.8517C149.235 31.222 146.484 30.9072 143.104 30.9072C139.458 30.9072 135.763 31.454 132.018 32.5476L131.372 29.0182C132.731 28.4548 134.653 27.9909 137.139 27.6263C139.624 27.2618 141.977 27.0795 144.197 27.0795ZM145.54 59.0928C147.793 59.0928 149.334 58.778 150.163 58.1483C150.958 57.5186 151.356 56.3256 151.356 54.5692V45.7705H139.873C137.553 45.7705 135.979 46.0853 135.15 46.715C134.322 47.3447 133.907 48.5211 133.907 50.2444V59.0928H145.54ZM185.109 27.0795C188.588 27.0795 191.14 27.5104 192.764 28.372C194.355 29.2668 195.432 30.9238 195.995 33.343C196.526 35.7954 196.791 39.6893 196.791 45.0249C196.791 50.3935 196.509 54.3372 195.946 56.8558C195.349 59.3413 194.255 61.0646 192.665 62.0257C191.074 62.9868 188.555 63.4673 185.109 63.4673C182.325 63.4673 180.121 63.3181 178.497 63.0199C176.84 62.7548 175.515 62.2577 174.521 61.5286V74.2544L169.997 75V27.6263H171.886L173.129 30.4598C173.99 29.0679 175.299 28.1566 177.056 27.7258C178.812 27.2949 181.497 27.0795 185.109 27.0795ZM192.217 57.7506V31.1061H177.901C176.642 31.1061 175.763 31.1889 175.266 31.3546C174.769 31.5203 174.521 31.8351 174.521 32.2991V59.4408H188.787C190.179 59.4408 191.107 59.3248 191.571 59.0928C192.002 58.894 192.217 58.4466 192.217 57.7506ZM219.558 59.1425C221.414 59.1425 223.22 59.0265 224.976 58.7945C226.766 58.5626 228.953 58.1152 231.538 57.4524L232.184 61.0315C230.693 61.628 228.688 62.1085 226.169 62.4731C223.684 62.8045 221.082 62.9702 218.365 62.9702C214.951 62.9702 212.433 62.4896 210.809 61.5286C209.185 60.6007 208.075 58.894 207.478 56.4085C206.915 53.9561 206.633 50.1616 206.633 45.0249C206.633 40.1533 206.998 36.4582 207.727 33.9395C208.489 31.454 209.798 29.681 211.654 28.6205C213.543 27.5932 216.327 27.0795 220.005 27.0795C223.551 27.0795 226.252 27.3447 228.108 27.8749C229.931 28.4383 231.207 29.4159 231.936 30.8078C232.698 32.1997 233.079 34.2709 233.079 37.0215C233.079 40.6007 232.632 43.0862 231.737 44.478C230.875 45.9031 229.036 46.831 226.219 47.2618C223.402 47.7258 218.431 47.9577 211.306 47.9577V58.1483C213.427 58.8111 216.178 59.1425 219.558 59.1425ZM217.321 31.2552C214.968 31.2552 213.377 31.57 212.549 32.1997C211.72 32.7962 211.306 33.9892 211.306 35.7788V44.2295H222.789C225.175 44.2295 226.799 43.9312 227.661 43.3347C228.522 42.7382 228.953 41.5617 228.953 39.8053V31.2552H217.321ZM247.893 27.6263L249.831 33.4424C252.151 31.4209 254.04 29.8799 255.498 28.8194C256.923 27.792 258.149 27.0464 259.177 26.5824L259.773 31.0066C256.26 32.2659 253.162 33.9727 250.477 36.1268V62.4234H245.954V27.6263H247.893ZM279.906 27.0795C282.922 27.0795 285.258 27.3447 286.915 27.8749C288.605 28.4383 289.798 29.3496 290.494 30.6089C291.19 31.8683 291.538 33.6247 291.538 35.8782V62.4234H289.649L288.307 58.9437C286.683 60.3355 284.877 61.3463 282.888 61.976C280.867 62.6388 278.464 62.9702 275.68 62.9702C271.969 62.9702 269.351 62.2245 267.826 60.7332C266.335 59.2419 265.589 56.6736 265.589 53.0282C265.589 49.449 266.004 46.947 266.832 45.522C267.661 44.1301 269.417 43.2022 272.101 42.7382C274.786 42.3074 279.541 42.092 286.368 42.092H287.064V31.8517C284.943 31.222 282.192 30.9072 278.812 30.9072C275.167 30.9072 271.472 31.454 267.727 32.5476L267.081 29.0182C268.439 28.4548 270.361 27.9909 272.847 27.6263C275.332 27.2618 277.685 27.0795 279.906 27.0795ZM281.248 59.0928C283.502 59.0928 285.043 58.778 285.871 58.1483C286.666 57.5186 287.064 56.3256 287.064 54.5692V45.7705H275.581C273.261 45.7705 271.687 46.0853 270.859 46.715C270.03 47.3447 269.616 48.5211 269.616 50.2444V59.0928H281.248ZM325.689 15.7954L330.212 15V62.4234H328.323L327.18 59.7887C326.385 61.2138 325.142 62.1748 323.452 62.6719C321.795 63.2022 319.342 63.4673 316.095 63.4673C312.25 63.4673 309.467 63.0365 307.743 62.1748C306.02 61.3132 304.86 59.6396 304.264 57.1541C303.667 54.6686 303.369 50.6255 303.369 45.0249C303.369 39.855 303.651 36.0439 304.214 33.5916C304.744 31.1392 305.788 29.4325 307.346 28.4714C308.87 27.5435 311.223 27.0795 314.405 27.0795C317.52 27.0795 319.939 27.1955 321.662 27.4275C323.386 27.6926 324.728 28.2229 325.689 29.0182V15.7954ZM325.689 57.7506V31.1061H311.372C310.014 31.1061 309.119 31.2055 308.688 31.4043C308.257 31.6031 308.042 32.0505 308.042 32.7465V59.4408H322.308C323.7 59.4408 324.612 59.3248 325.043 59.0928C325.473 58.894 325.689 58.4466 325.689 57.7506ZM355.266 59.1425C357.122 59.1425 358.928 59.0265 360.685 58.7945C362.474 58.5626 364.661 58.1152 367.246 57.4524L367.893 61.0315C366.401 61.628 364.396 62.1085 361.878 62.4731C359.392 62.8045 356.791 62.9702 354.073 62.9702C350.66 62.9702 348.141 62.4896 346.517 61.5286C344.893 60.6007 343.783 58.894 343.187 56.4085C342.623 53.9561 342.342 50.1616 342.342 45.0249C342.342 40.1533 342.706 36.4582 343.435 33.9395C344.197 31.454 345.506 29.681 347.362 28.6205C349.251 27.5932 352.035 27.0795 355.714 27.0795C359.26 27.0795 361.96 27.3447 363.816 27.8749C365.639 28.4383 366.915 29.4159 367.644 30.8078C368.406 32.1997 368.787 34.2709 368.787 37.0215C368.787 40.6007 368.34 43.0862 367.445 44.478C366.584 45.9031 364.744 46.831 361.927 47.2618C359.11 47.7258 354.139 47.9577 347.014 47.9577V58.1483C349.135 58.8111 351.886 59.1425 355.266 59.1425ZM353.029 31.2552C350.676 31.2552 349.086 31.57 348.257 32.1997C347.429 32.7962 347.014 33.9892 347.014 35.7788V44.2295H358.497C360.883 44.2295 362.507 43.9312 363.369 43.3347C364.231 42.7382 364.661 41.5617 364.661 39.8053V31.2552H353.029Z" fill="#E7E7E6"/>
<path d="M41.6594 83.5929V83.2926H37.7551C37.7551 83.3927 37.7551 83.5929 37.8552 83.7931C37.8552 84.3938 37.8552 84.8943 37.655 85.3949C39.0566 85.495 40.5582 85.495 41.9598 85.3949C41.6594 84.7942 41.5593 84.1936 41.6594 83.5929ZM32.6494 81.6908C32.3491 81.2903 31.8485 80.6897 31.0476 80.6897C30.8474 80.6897 30.5471 80.6897 30.3469 80.8899C29.9464 81.0901 29.6461 81.4906 29.4459 81.9911C29.0454 81.4906 28.4448 81.0901 27.5438 81.0901C27.2434 81.0901 26.843 81.1902 26.3424 81.2903C25.942 81.4906 25.6416 81.891 25.4414 82.3916C25.041 82.1913 24.4403 81.7909 23.6394 81.7909C23.3391 81.7909 23.0388 81.7909 22.7384 81.891C21.0365 82.3916 20.536 88.9989 25.8419 90C25.8419 90 26.843 90 27.1433 89.099C27.6439 89.5996 28.1444 89.8999 28.8452 90C28.8452 90 29.6461 89.8999 29.9464 88.8988C30.3469 89.3994 30.7473 89.6997 31.2479 89.6997H31.5482C32.4492 89.4995 32.9498 88.6986 33.15 87.5974C34.1511 86.8966 35.853 85.495 35.7529 83.7931C35.5527 81.891 33.2501 81.6908 32.6494 81.6908ZM56.576 81.7909C56.2757 81.6908 55.9753 81.6908 55.675 81.6908C54.8741 81.6908 54.2735 82.0912 53.873 82.2915C53.6728 81.6908 53.3725 81.2903 52.972 81.1902C52.5716 80.99 52.1711 80.99 51.7707 80.99C50.9698 80.99 50.3691 81.3904 49.9687 81.7909C49.7685 81.2903 49.4681 80.8899 49.0677 80.6897C48.7673 80.5896 48.5671 80.4895 48.3669 80.4895C47.566 80.4895 47.0654 81.0901 46.7651 81.4906C46.0643 81.4906 43.7618 81.6908 43.6617 83.693C43.5616 85.3949 45.1633 86.7965 46.2646 87.4972C46.4648 88.5985 46.9653 89.3994 47.8663 89.5996H48.1667C48.6672 89.5996 49.1678 89.2992 49.4681 88.7987C49.7685 89.7998 50.5693 89.8999 50.5693 89.8999C51.17 89.7998 51.7707 89.4995 52.2712 88.9989C52.5716 89.7998 53.5727 89.8999 53.5727 89.8999C58.7785 88.8988 58.378 82.3916 56.576 81.7909ZM74.4959 44.4494C74.0955 44.2492 73.695 44.049 73.2946 43.9488C73.1945 43.9488 72.4937 43.7486 71.5927 43.7486C69.19 43.8487 64.4848 45.4505 61.982 55.8621C58.7785 68.7764 64.8853 73.782 64.8853 73.782C64.8853 73.782 72.1934 73.1813 76.1978 61.3682C79.7017 50.7564 77.6995 46.2514 74.4959 44.4494ZM17.0321 56.4627C14.0287 46.2514 9.42362 44.7497 6.92084 44.7497C5.91973 44.7497 5.31906 44.95 5.31906 44.95C1.51483 46.3515 -1.28828 50.8565 3.11661 62.4694C7.52151 74.1824 14.9297 74.3827 14.9297 74.3827C14.9297 74.3827 20.7362 69.1769 17.0321 56.4627Z" fill="#E7E7E6"/>
<path d="M30.8474 43.6485C32.1191 43.6485 33.15 42.6176 33.15 41.3459C33.15 40.0743 32.1191 39.0434 30.8474 39.0434C29.5758 39.0434 28.5449 40.0743 28.5449 41.3459C28.5449 42.6176 29.5758 43.6485 30.8474 43.6485Z" fill="#E7E7E6"/>
<path d="M47.9665 43.6485C49.2381 43.6485 50.269 42.6176 50.269 41.3459C50.269 40.0743 49.2381 39.0434 47.9665 39.0434C46.6948 39.0434 45.6639 40.0743 45.6639 41.3459C45.6639 42.6176 46.6948 43.6485 47.9665 43.6485Z" fill="#E7E7E6"/>
<path d="M35.3524 65.5729H29.4459L32.4492 68.1758L35.3524 65.5729ZM40.1578 68.1758L43.061 65.5729H37.1544L40.1578 68.1758ZM40.2579 77.4861L43.1611 74.8832H37.2545L40.2579 77.4861ZM33.4503 70.2781L36.4537 72.9811L39.3569 70.2781H33.4503ZM43.962 72.9811L46.8652 70.2781H40.9587L43.962 72.9811ZM50.7696 65.5729H44.863L47.8663 68.1758L50.7696 65.5729ZM16.7317 33.7375L15.3302 27.2303H12.8274L11.3257 33.7375H11.4258L11.3257 34.0378H16.7317V33.7375Z" fill="#E7E7E6"/>
<path d="M60.4804 55.4616C63.0833 44.95 67.8886 42.5473 70.992 42.247C68.5894 32.5362 63.1834 27.2303 63.1834 27.2303V19.4216L39.8574 31.2347L38.9564 31.7353L38.0554 31.2347L17.3324 20.5228V26.9299L18.734 33.337L19.3346 35.8398H10.5248C9.52373 37.9422 8.72284 40.4449 8.02206 43.3482C11.0254 43.7486 15.6305 46.1513 18.5337 56.0623C22.4381 69.5773 16.2312 75.3838 15.9309 75.6841L15.7306 75.8843C17.4325 77.7864 19.4347 79.3882 21.3369 80.5896C21.5371 80.3893 21.8374 80.2892 22.1378 80.1891C22.6383 79.9889 23.1389 79.9889 23.6394 79.9889C24.0399 79.9889 24.4403 80.089 24.7406 80.089C25.041 79.8888 25.3413 79.6886 25.5415 79.5884C25.7418 79.4883 26.0421 79.3882 26.2423 79.3882C24.6405 77.386 23.7395 74.3827 23.7395 70.0779C23.7395 62.069 30.9475 56.1624 39.7573 56.1624C48.5671 56.1624 55.7751 62.1691 55.7751 70.0779C55.7751 74.3827 54.8741 77.2859 53.2723 79.2881C53.3725 79.2881 53.5727 79.3882 53.6728 79.3882C53.9731 79.4883 54.1734 79.6886 54.4737 79.8888C54.774 79.7887 55.1745 79.7887 55.5749 79.7887C56.0755 79.7887 56.576 79.8888 57.0766 79.9889C57.3769 80.089 57.6772 80.2892 57.9776 80.4894C60.0799 79.188 62.1823 77.386 63.9843 75.2837L63.784 75.0834C63.6839 74.683 57.1767 69.0768 60.4804 55.4616ZM28.5449 51.4572C22.9386 51.4572 18.4336 46.9522 18.4336 41.3459C18.4336 35.7397 22.9386 31.2347 28.5449 31.2347C34.1511 31.2347 38.6561 35.7397 38.6561 41.3459C38.6561 46.9522 34.1511 51.4572 28.5449 51.4572ZM39.7573 54.5606L36.6539 50.7564C36.6539 50.7564 37.655 48.6541 39.457 48.6541C41.259 48.6541 42.5604 50.4561 42.5604 50.4561L39.7573 54.5606ZM51.17 51.4572C45.5638 51.4572 41.0588 46.9522 41.0588 41.3459C41.0588 35.7397 45.5638 31.2347 51.17 31.2347C56.7762 31.2347 61.2812 35.7397 61.2812 41.3459C61.2812 46.9522 56.7762 51.4572 51.17 51.4572Z" fill="#E7E7E6"/>
<path d="M12.8274 15.8176V25.1279H15.2301V17.119L38.9564 29.4327L65.9865 15.5172L69.0899 13.6151L38.9564 0L8.72284 13.6151L9.92418 14.416L12.8274 15.8176Z" fill="#E7E7E6"/>
</g>
<defs>
<clipPath id="clip0_1_55">
<rect width="369" height="90" fill="white"/>
</clipPath>
</defs>
</svg>
