<svg width="112" height="112" viewBox="0 0 112 112" fill="none" xmlns="http://www.w3.org/2000/svg">
<path d="M44.3333 77L77 56L44.3333 35V77ZM56 102.667C49.5444 102.667 43.4778 101.441 37.8 98.9893C32.1222 96.5409 27.1833 93.2167 22.9833 89.0167C18.7833 84.8167 15.4591 79.8778 13.0106 74.2C10.5591 68.5222 9.33331 62.4556 9.33331 56C9.33331 49.5445 10.5591 43.4778 13.0106 37.8C15.4591 32.1222 18.7833 27.1833 22.9833 22.9833C27.1833 18.7833 32.1222 15.4576 37.8 13.006C43.4778 10.5576 49.5444 9.33334 56 9.33334C62.4555 9.33334 68.5222 10.5576 74.2 13.006C79.8778 15.4576 84.8167 18.7833 89.0167 22.9833C93.2167 27.1833 96.5409 32.1222 98.9893 37.8C101.441 43.4778 102.667 49.5445 102.667 56C102.667 62.4556 101.441 68.5222 98.9893 74.2C96.5409 79.8778 93.2167 84.8167 89.0167 89.0167C84.8167 93.2167 79.8778 96.5409 74.2 98.9893C68.5222 101.441 62.4555 102.667 56 102.667Z" fill="white"/>
</svg>
