<svg width="18" height="18" viewBox="0 0 18 18" fill="none" xmlns="http://www.w3.org/2000/svg">
<path d="M11.625 9C13.5 9 15 10.5 15 12.375C15 13.035 14.8125 13.6575 14.4825 14.175L16.7925 16.5L15.75 17.5425L13.41 15.24C12.8925 15.5625 12.2775 15.75 11.625 15.75C9.75 15.75 8.25 14.25 8.25 12.375C8.25 10.5 9.75 9 11.625 9ZM11.625 10.5C11.1277 10.5 10.6508 10.6975 10.2992 11.0492C9.94754 11.4008 9.75 11.8777 9.75 12.375C9.75 12.8723 9.94754 13.3492 10.2992 13.7008C10.6508 14.0525 11.1277 14.25 11.625 14.25C12.1223 14.25 12.5992 14.0525 12.9508 13.7008C13.3025 13.3492 13.5 12.8723 13.5 12.375C13.5 11.8777 13.3025 11.4008 12.9508 11.0492C12.5992 10.6975 12.1223 10.5 11.625 10.5ZM3.75 2.25H14.25C15.0825 2.25 15.75 2.9175 15.75 3.75V9.7725C15.375 9.1725 14.8575 8.655 14.25 8.25V3.75H3.75V14.25H7.125C7.3575 14.8125 7.695 15.315 8.1075 15.75H3.75C2.9175 15.75 2.25 15.0825 2.25 14.25V3.75C2.25 2.9175 2.9175 2.25 3.75 2.25ZM5.25 5.25H12.75V6.75H5.25V5.25ZM5.25 8.25H9.0225C8.4225 8.625 7.905 9.1425 7.5 9.75H5.25V8.25ZM5.25 11.25H6.8775C6.795 11.625 6.75 12 6.75 12.375V12.75H5.25V11.25Z" fill="#332685"/>
</svg>
