<svg width="164" height="191" viewBox="0 0 164 191" fill="none" xmlns="http://www.w3.org/2000/svg">
<path d="M86.5597 177.403V176.765H78.2738C78.2738 176.978 78.2738 177.403 78.4863 177.828C78.4863 179.102 78.4863 180.165 78.0613 181.227C81.0358 181.439 84.2226 181.439 87.197 181.227C86.5597 179.952 86.3472 178.677 86.5597 177.403ZM67.4384 173.366C66.8011 172.516 65.7388 171.241 64.0391 171.241C63.6142 171.241 62.9768 171.241 62.5519 171.666C61.7021 172.091 61.0647 172.941 60.6398 174.003C59.7899 172.941 58.5152 172.091 56.6031 172.091C55.9657 172.091 55.1158 172.304 54.0536 172.516C53.2037 172.941 52.5663 173.791 52.1414 174.853C51.2916 174.428 50.0168 173.578 48.3172 173.578C47.6798 173.578 47.0424 173.578 46.4051 173.791C42.7933 174.853 41.731 188.875 52.9913 191C52.9913 191 55.1158 191 55.7532 189.088C56.8155 190.15 57.8778 190.788 59.365 191C59.365 191 61.0647 190.788 61.7021 188.663C62.5519 189.725 63.4017 190.363 64.464 190.363H65.1014C67.0135 189.938 68.0758 188.238 68.5007 185.901C70.6253 184.414 74.2371 181.439 74.0246 177.828C73.5997 173.791 68.7132 173.366 67.4384 173.366ZM118.216 173.578C117.579 173.366 116.941 173.366 116.304 173.366C114.604 173.366 113.329 174.216 112.48 174.641C112.055 173.366 111.417 172.516 110.567 172.304C109.718 171.879 108.868 171.879 108.018 171.879C106.318 171.879 105.044 172.729 104.194 173.578C103.769 172.516 103.131 171.666 102.282 171.241C101.644 171.029 101.219 170.816 100.794 170.816C99.0947 170.816 98.0324 172.091 97.395 172.941C95.9078 172.941 91.0213 173.366 90.8088 177.615C90.5964 181.227 93.9957 184.201 96.3327 185.689C96.7577 188.026 97.82 189.725 99.7321 190.15H100.369C101.432 190.15 102.494 189.513 103.131 188.45C103.769 190.575 105.468 190.788 105.468 190.788C106.743 190.575 108.018 189.938 109.08 188.875C109.718 190.575 111.842 190.788 111.842 190.788C122.89 188.663 122.04 174.853 118.216 173.578ZM156.246 94.3315C155.396 93.9066 154.546 93.4817 153.696 93.2692C153.484 93.2692 151.997 92.8443 150.085 92.8443C144.986 93.0567 135 96.4561 129.689 118.552C122.89 145.959 135.85 156.582 135.85 156.582C135.85 156.582 151.359 155.307 159.858 130.237C167.294 107.716 163.045 98.1557 156.246 94.3315ZM34.2949 119.826C27.9212 98.1557 18.1481 94.9689 12.8367 94.9689C10.7121 94.9689 9.43732 95.3938 9.43732 95.3938C1.36391 98.3682 -4.58492 107.929 4.76324 132.574C14.1114 157.432 29.8333 157.857 29.8333 157.857C29.8333 157.857 42.1559 146.809 34.2949 119.826Z" fill="#E7E7E6"/>
<path d="M63.6143 92.6318C66.313 92.6318 68.5008 90.444 68.5008 87.7453C68.5008 85.0465 66.313 82.8587 63.6143 82.8587C60.9155 82.8587 58.7277 85.0465 58.7277 87.7453C58.7277 90.444 60.9155 92.6318 63.6143 92.6318Z" fill="#E7E7E6"/>
<path d="M99.9446 92.6318C102.643 92.6318 104.831 90.444 104.831 87.7453C104.831 85.0465 102.643 82.8587 99.9446 82.8587C97.2459 82.8587 95.0581 85.0465 95.0581 87.7453C95.0581 90.444 97.2459 92.6318 99.9446 92.6318Z" fill="#E7E7E6"/>
<path d="M73.1749 139.16H60.6398L67.0136 144.684L73.1749 139.16ZM83.3729 144.684L89.5342 139.16H76.9991L83.3729 144.684ZM83.5853 164.443L89.7466 158.919H77.2116L83.5853 164.443ZM69.1382 149.146L75.5119 154.882L81.6732 149.146H69.1382ZM91.4463 154.882L97.6076 149.146H85.0725L91.4463 154.882ZM105.893 139.16H93.3584L99.7322 144.684L105.893 139.16ZM33.6576 71.5985L30.6832 57.7887H25.3718L22.1849 71.5985H22.3974L22.1849 72.2358H33.6576V71.5985Z" fill="#E7E7E6"/>
<path d="M126.502 117.702C132.026 95.3938 142.224 90.2948 148.81 89.6574C143.711 69.0489 132.238 57.7887 132.238 57.7887V41.2169L82.7355 66.287L80.8233 67.3493L78.9112 66.287L34.9324 43.5539V57.1513L37.9068 70.7486L39.1815 76.0601H20.4852C18.3606 80.5217 16.661 85.8331 15.1738 91.9944C21.5475 92.8443 31.3206 97.9433 37.4819 118.977C45.7677 147.658 32.5953 159.981 31.958 160.618L31.533 161.043C35.1448 165.08 39.394 168.479 43.4307 171.029C43.8556 170.604 44.493 170.392 45.1304 170.179C46.1927 169.754 47.2549 169.754 48.3172 169.754C49.1671 169.754 50.0169 169.967 50.6543 169.967C51.2917 169.542 51.929 169.117 52.3539 168.904C52.7789 168.692 53.4162 168.479 53.8412 168.479C50.4418 164.23 48.5297 157.856 48.5297 148.721C48.5297 131.724 63.8267 119.189 82.523 119.189C101.219 119.189 116.516 131.937 116.516 148.721C116.516 157.856 114.604 164.018 111.205 168.267C111.417 168.267 111.842 168.479 112.055 168.479C112.692 168.692 113.117 169.117 113.754 169.542C114.392 169.329 115.242 169.329 116.091 169.329C117.154 169.329 118.216 169.542 119.278 169.754C119.916 169.967 120.553 170.392 121.19 170.816C125.652 168.054 130.114 164.23 133.938 159.769L133.513 159.344C133.301 158.494 119.491 146.596 126.502 117.702ZM58.7277 109.204C46.83 109.204 37.2694 99.6429 37.2694 87.7453C37.2694 75.8476 46.83 66.287 58.7277 66.287C70.6254 66.287 80.186 75.8476 80.186 87.7453C80.186 99.6429 70.6254 109.204 58.7277 109.204ZM82.523 115.79L75.9368 107.716C75.9368 107.716 78.0614 103.255 81.8856 103.255C85.7099 103.255 88.4718 107.079 88.4718 107.079L82.523 115.79ZM106.743 109.204C94.8456 109.204 85.285 99.6429 85.285 87.7453C85.285 75.8476 94.8456 66.287 106.743 66.287C118.641 66.287 128.202 75.8476 128.202 87.7453C128.202 99.6429 118.641 109.204 106.743 109.204Z" fill="#E7E7E6"/>
<path d="M25.3718 33.5684V53.327H30.4708V36.3304L80.8234 62.4627L138.187 32.931L144.773 28.8943L80.8234 0L16.661 28.8943L19.2105 30.594L25.3718 33.5684Z" fill="#E7E7E6"/>
</svg>
