<svg width="24" height="27" viewBox="0 0 24 27" fill="none" xmlns="http://www.w3.org/2000/svg">
<path d="M12.2362 25.0779V24.9878H11.0649C11.0649 25.0178 11.0649 25.0779 11.0949 25.1379C11.0949 25.3181 11.0949 25.4683 11.0349 25.6185C11.4553 25.6485 11.9058 25.6485 12.3263 25.6185C12.2362 25.4383 12.2062 25.2581 12.2362 25.0779ZM9.53319 24.5072C9.44309 24.3871 9.29292 24.2069 9.05266 24.2069C8.99259 24.2069 8.90249 24.2069 8.84242 24.267C8.72229 24.327 8.63219 24.4472 8.57212 24.5973C8.45199 24.4472 8.27179 24.327 8.00149 24.327C7.91139 24.327 7.79125 24.3571 7.64109 24.3871C7.52095 24.4472 7.43085 24.5673 7.37079 24.7175C7.25065 24.6574 7.07045 24.5373 6.83018 24.5373C6.74008 24.5373 6.64998 24.5373 6.55988 24.5673C6.04932 24.7175 5.89915 26.6997 7.49092 27C7.49092 27 7.79125 27 7.88135 26.7297C8.03152 26.8799 8.18169 26.97 8.39192 27C8.39192 27 8.63219 26.97 8.72229 26.6696C8.84242 26.8198 8.96255 26.9099 9.11272 26.9099H9.20282C9.47312 26.8498 9.62329 26.6096 9.68336 26.2792C9.98369 26.069 10.4943 25.6485 10.4642 25.1379C10.4042 24.5673 9.71339 24.5072 9.53319 24.5072ZM16.7112 24.5373C16.6211 24.5072 16.531 24.5072 16.4409 24.5072C16.2006 24.5072 16.0204 24.6274 15.9003 24.6874C15.8402 24.5072 15.7501 24.3871 15.63 24.3571C15.5098 24.297 15.3897 24.297 15.2696 24.297C15.0293 24.297 14.8491 24.4171 14.729 24.5373C14.6689 24.3871 14.5788 24.267 14.4587 24.2069C14.3686 24.1769 14.3085 24.1468 14.2484 24.1468C14.0082 24.1468 13.858 24.327 13.7679 24.4472C13.5577 24.4472 12.8669 24.5072 12.8369 25.1079C12.8068 25.6185 13.2874 26.0389 13.6177 26.2492C13.6778 26.5795 13.828 26.8198 14.0983 26.8799H14.1884C14.3385 26.8799 14.4887 26.7898 14.5788 26.6396C14.6689 26.9399 14.9092 26.97 14.9092 26.97C15.0894 26.9399 15.2696 26.8498 15.4197 26.6997C15.5098 26.9399 15.8102 26.97 15.8102 26.97C17.3719 26.6696 17.2518 24.7175 16.7112 24.5373ZM22.0871 13.3348C21.967 13.2747 21.8469 13.2147 21.7267 13.1846C21.6967 13.1846 21.4865 13.1246 21.2162 13.1246C20.4954 13.1546 19.0838 13.6351 18.333 16.7586C17.3719 20.6329 19.2039 22.1346 19.2039 22.1346C19.2039 22.1346 21.3964 21.9544 22.5977 18.4105C23.6489 15.2269 23.0482 13.8754 22.0871 13.3348ZM4.84798 16.9388C3.94698 13.8754 2.56544 13.4249 1.81461 13.4249C1.51427 13.4249 1.33407 13.485 1.33407 13.485C0.192804 13.9054 -0.648131 15.2569 0.673338 18.7408C1.99481 22.2547 4.21728 22.3148 4.21728 22.3148C4.21728 22.3148 5.95922 20.7531 4.84798 16.9388Z" fill="#E7E7E6"/>
<path d="M8.99302 13.0945C9.37452 13.0945 9.68378 12.7853 9.68378 12.4038C9.68378 12.0223 9.37452 11.713 8.99302 11.713C8.61151 11.713 8.30225 12.0223 8.30225 12.4038C8.30225 12.7853 8.61151 13.0945 8.99302 13.0945Z" fill="#E7E7E6"/>
<path d="M14.1278 13.0945C14.5093 13.0945 14.8185 12.7853 14.8185 12.4038C14.8185 12.0223 14.5093 11.713 14.1278 11.713C13.7463 11.713 13.437 12.0223 13.437 12.4038C13.437 12.7853 13.7463 13.0945 14.1278 13.0945Z" fill="#E7E7E6"/>
<path d="M10.3438 19.6719H8.57179L9.47279 20.4527L10.3438 19.6719ZM11.7854 20.4527L12.6563 19.6719H10.8844L11.7854 20.4527ZM11.8154 23.2458L12.6864 22.465H10.9144L11.8154 23.2458ZM9.77312 21.0834L10.6741 21.8943L11.5451 21.0834H9.77312ZM12.9266 21.8943L13.7976 21.0834H12.0256L12.9266 21.8943ZM14.9689 19.6719H13.1969L14.0979 20.4527L14.9689 19.6719ZM4.75755 10.1212L4.33708 8.16907H3.58624L3.13574 10.1212H3.16578L3.13574 10.2113H4.75755V10.1212Z" fill="#E7E7E6"/>
<path d="M17.882 16.6385C18.6629 13.485 20.1045 12.7642 21.0355 12.6741C20.3147 9.76085 18.6929 8.16908 18.6929 8.16908V5.82648L11.6952 9.37042L11.4249 9.52059L11.1545 9.37042L4.93764 6.15684V8.07898L5.3581 10.0011L5.5383 10.752H2.89537C2.59503 11.3827 2.35477 12.1335 2.14453 13.0045C3.04553 13.1246 4.42707 13.8454 5.29804 16.8187C6.46934 20.8732 4.60727 22.6151 4.51717 22.7052L4.4571 22.7653C4.96767 23.3359 5.56834 23.8165 6.13897 24.1769C6.19904 24.1168 6.28914 24.0868 6.37924 24.0567C6.52941 23.9967 6.67957 23.9967 6.82974 23.9967C6.94987 23.9967 7.07001 24.0267 7.16011 24.0267C7.25021 23.9666 7.34031 23.9066 7.40037 23.8765C7.46044 23.8465 7.55054 23.8165 7.61061 23.8165C7.13007 23.2158 6.85977 22.3148 6.85977 21.0234C6.85977 18.6207 9.02218 16.8487 11.6651 16.8487C14.3081 16.8487 16.4705 18.6507 16.4705 21.0234C16.4705 22.3148 16.2002 23.1858 15.7196 23.7864C15.7497 23.7864 15.8097 23.8165 15.8398 23.8165C15.9299 23.8465 15.9899 23.9066 16.08 23.9666C16.1701 23.9366 16.2903 23.9366 16.4104 23.9366C16.5606 23.9366 16.7107 23.9666 16.8609 23.9967C16.951 24.0267 17.0411 24.0868 17.1312 24.1468C17.7619 23.7564 18.3926 23.2158 18.9332 22.5851L18.8731 22.525C18.8431 22.4049 16.8909 20.723 17.882 16.6385ZM8.30138 15.4372C6.61951 15.4372 5.268 14.0857 5.268 12.4038C5.268 10.7219 6.61951 9.37042 8.30138 9.37042C9.98325 9.37042 11.3348 10.7219 11.3348 12.4038C11.3348 14.0857 9.98325 15.4372 8.30138 15.4372ZM11.6651 16.3682L10.7341 15.2269C10.7341 15.2269 11.0344 14.5962 11.575 14.5962C12.1156 14.5962 12.5061 15.1368 12.5061 15.1368L11.6651 16.3682ZM15.0889 15.4372C13.4071 15.4372 12.0556 14.0857 12.0556 12.4038C12.0556 10.7219 13.4071 9.37042 15.0889 9.37042C16.7708 9.37042 18.1223 10.7219 18.1223 12.4038C18.1223 14.0857 16.7708 15.4372 15.0889 15.4372Z" fill="#E7E7E6"/>
<path d="M3.58635 4.74528V7.53838H4.30715V5.13571L11.4251 8.82982L19.5341 4.65518L20.4651 4.08454L11.4251 0L2.35498 4.08454L2.71538 4.32481L3.58635 4.74528Z" fill="#E7E7E6"/>
</svg>
