<svg width="1512" height="355" viewBox="0 0 1512 355" fill="none" xmlns="http://www.w3.org/2000/svg">
<path d="M1.24237 144.988C38.2442 128.153 139.649 97.6852 249.254 110.486C386.261 126.487 884.285 347.94 1073.79 340.939C1196.8 336.395 1432.48 251.326 1509.82 213.491" stroke="white" stroke-width="6"/>
<circle cx="187.751" cy="107.928" r="13.5008" fill="#7261DF" stroke="white" stroke-width="6"/>
<circle cx="520.768" cy="195.932" r="13.5008" fill="#7261DF" stroke="white" stroke-width="6"/>
<circle cx="807.782" cy="288.937" r="13.5008" fill="#7261DF" stroke="white" stroke-width="6"/>
<circle cx="1326.81" cy="281.936" r="13.5008" fill="#7261DF" stroke="white" stroke-width="6"/>
<path d="M1074.26 334.741V333.791H1061.91C1061.91 334.108 1061.91 334.741 1062.23 335.374C1062.23 337.273 1062.23 338.856 1061.59 340.439C1066.02 340.755 1070.77 340.755 1075.2 340.439C1074.26 338.54 1073.94 336.64 1074.26 334.741ZM1045.77 328.727C1044.82 327.461 1043.23 325.561 1040.7 325.561C1040.07 325.561 1039.12 325.561 1038.49 326.194C1037.22 326.827 1036.27 328.094 1035.64 329.676C1034.37 328.094 1032.47 326.827 1029.62 326.827C1028.67 326.827 1027.41 327.144 1025.82 327.461C1024.56 328.094 1023.61 329.36 1022.97 330.943C1021.71 330.309 1019.81 329.043 1017.28 329.043C1016.33 329.043 1015.38 329.043 1014.43 329.36C1009.05 330.943 1007.46 351.835 1024.24 355C1024.24 355 1027.41 355 1028.36 352.151C1029.94 353.734 1031.52 354.683 1033.74 355C1033.74 355 1036.27 354.683 1037.22 351.518C1038.49 353.101 1039.75 354.05 1041.33 354.05H1042.28C1045.13 353.417 1046.72 350.885 1047.35 347.403C1050.51 345.187 1055.9 340.755 1055.58 335.374C1054.95 329.36 1047.67 328.727 1045.77 328.727ZM1121.42 329.043C1120.47 328.727 1119.52 328.727 1118.57 328.727C1116.04 328.727 1114.14 329.993 1112.87 330.626C1112.24 328.727 1111.29 327.461 1110.02 327.144C1108.76 326.511 1107.49 326.511 1106.23 326.511C1103.69 326.511 1101.79 327.777 1100.53 329.043C1099.9 327.461 1098.95 326.194 1097.68 325.561C1096.73 325.245 1096.1 324.928 1095.46 324.928C1092.93 324.928 1091.35 326.827 1090.4 328.094C1088.18 328.094 1080.9 328.727 1080.59 335.058C1080.27 340.439 1085.33 344.871 1088.82 347.086C1089.45 350.568 1091.03 353.101 1093.88 353.734H1094.83C1096.41 353.734 1098 352.784 1098.95 351.201C1099.9 354.367 1102.43 354.683 1102.43 354.683C1104.33 354.367 1106.23 353.417 1107.81 351.835C1108.76 354.367 1111.92 354.683 1111.92 354.683C1128.38 351.518 1127.12 330.943 1121.42 329.043ZM1178.08 210.972C1176.82 210.339 1175.55 209.706 1174.28 209.389C1173.97 209.389 1171.75 208.756 1168.9 208.756C1161.31 209.073 1146.43 214.137 1138.51 247.058C1128.38 287.892 1147.69 303.72 1147.69 303.72C1147.69 303.72 1170.8 301.82 1183.46 264.468C1194.54 230.914 1188.21 216.67 1178.08 210.972ZM996.385 248.957C986.889 216.67 972.328 211.922 964.414 211.922C961.249 211.922 959.349 212.555 959.349 212.555C947.321 216.986 938.457 231.231 952.385 267.95C966.313 304.986 989.738 305.619 989.738 305.619C989.738 305.619 1008.1 289.159 996.385 248.957Z" fill="#E7E7E6"/>
<path d="M1040.07 208.44C1044.09 208.44 1047.35 205.18 1047.35 201.159C1047.35 197.138 1044.09 193.879 1040.07 193.879C1036.05 193.879 1032.79 197.138 1032.79 201.159C1032.79 205.18 1036.05 208.44 1040.07 208.44Z" fill="#E7E7E6"/>
<path d="M1094.2 208.44C1098.22 208.44 1101.48 205.18 1101.48 201.159C1101.48 197.138 1098.22 193.879 1094.2 193.879C1090.18 193.879 1086.92 197.138 1086.92 201.159C1086.92 205.18 1090.18 208.44 1094.2 208.44Z" fill="#E7E7E6"/>
<path d="M1054.31 277.763H1035.64L1045.13 285.993L1054.31 277.763ZM1069.51 285.993L1078.69 277.763H1060.01L1069.51 285.993ZM1069.82 315.432L1079 307.202H1060.33L1069.82 315.432ZM1048.3 292.641L1057.79 301.187L1066.97 292.641H1048.3ZM1081.54 301.187L1090.72 292.641H1072.04L1081.54 301.187ZM1103.06 277.763H1084.38L1093.88 285.993L1103.06 277.763ZM995.436 177.102L991.004 156.526H983.09L978.342 177.102H978.659L978.342 178.051H995.436V177.102Z" fill="#E7E7E6"/>
<path d="M1133.77 245.792C1142 212.555 1157.19 204.958 1167 204.008C1159.41 173.303 1142.31 156.526 1142.31 156.526V131.836L1068.56 169.188L1065.71 170.771L1062.86 169.188L997.335 135.318V155.577L1001.77 175.835L1003.67 183.749H975.81C972.644 190.397 970.112 198.31 967.896 207.49C977.392 208.756 991.953 216.353 1001.13 247.691C1013.48 290.425 993.853 308.784 992.903 309.734L992.27 310.367C997.651 316.381 1003.98 321.446 1010 325.245C1010.63 324.612 1011.58 324.295 1012.53 323.979C1014.11 323.345 1015.69 323.345 1017.28 323.345C1018.54 323.345 1019.81 323.662 1020.76 323.662C1021.71 323.029 1022.66 322.396 1023.29 322.079C1023.92 321.763 1024.87 321.446 1025.51 321.446C1020.44 315.115 1017.59 305.619 1017.59 292.008C1017.59 266.684 1040.38 248.008 1068.24 248.008C1096.1 248.008 1118.89 267 1118.89 292.008C1118.89 305.619 1116.04 314.799 1110.97 321.13C1111.29 321.13 1111.92 321.446 1112.24 321.446C1113.19 321.763 1113.82 322.396 1114.77 323.029C1115.72 322.712 1116.99 322.712 1118.25 322.712C1119.84 322.712 1121.42 323.029 1123 323.345C1123.95 323.662 1124.9 324.295 1125.85 324.928C1132.5 320.813 1139.15 315.115 1144.84 308.468L1144.21 307.835C1143.9 306.569 1123.32 288.842 1133.77 245.792ZM1032.79 233.13C1015.06 233.13 1000.82 218.886 1000.82 201.159C1000.82 183.433 1015.06 169.188 1032.79 169.188C1050.51 169.188 1064.76 183.433 1064.76 201.159C1064.76 218.886 1050.51 233.13 1032.79 233.13ZM1068.24 242.943L1058.43 230.914C1058.43 230.914 1061.59 224.267 1067.29 224.267C1072.99 224.267 1077.1 229.965 1077.1 229.965L1068.24 242.943ZM1104.33 233.13C1086.6 233.13 1072.36 218.886 1072.36 201.159C1072.36 183.433 1086.6 169.188 1104.33 169.188C1122.05 169.188 1136.3 183.433 1136.3 201.159C1136.3 218.886 1122.05 233.13 1104.33 233.13Z" fill="#E7E7E6"/>
<path d="M983.09 120.44V149.879H990.687V124.555L1065.71 163.49L1151.18 119.49L1160.99 113.476L1065.71 70.426L970.112 113.476L973.91 116.008L983.09 120.44Z" fill="#E7E7E6"/>
<g clip-path="url(#clip0_6_333)">
<path d="M145.105 9.94227L145.451 12.5498L143.231 12.8444C142.696 12.9154 142.32 13.4064 142.391 13.941C142.462 14.4756 142.953 14.8515 143.488 14.7805L145.708 14.4858L146.366 19.4403L144.146 19.735C143.611 19.806 143.235 20.297 143.306 20.8315C143.377 21.3663 143.868 21.742 144.403 21.6711L146.623 21.3764L147.28 26.331L145.06 26.6257C144.526 26.6967 144.15 27.1877 144.221 27.7222C144.292 28.2568 144.783 28.6327 145.317 28.5618L147.537 28.2671L148.195 33.2217L145.975 33.5164C145.44 33.5874 145.064 34.0784 145.135 34.6129C145.206 35.1475 145.697 35.5234 146.232 35.4525L148.452 35.1578L149.11 40.1123L146.89 40.407C146.355 40.478 145.979 40.9689 146.05 41.5035C146.121 42.0381 146.612 42.414 147.147 42.343L149.367 42.0484L150.024 47.0029L147.804 47.2975C147.27 47.3685 146.894 47.8595 146.965 48.3941C147.036 48.9287 147.527 49.3046 148.061 49.2336L150.281 48.9389L150.939 53.8934L148.719 54.1881C148.184 54.2591 147.808 54.75 147.879 55.2846C147.95 55.8192 148.441 56.1951 148.976 56.1242L151.196 55.8295L151.854 60.784L149.634 61.0787C149.099 61.1496 148.723 61.6406 148.794 62.1752C148.865 62.7098 149.356 63.0857 149.891 63.0147L152.111 62.72L152.768 67.6745L150.548 67.9692C150.014 68.0402 149.638 68.5312 149.709 69.0657C149.78 69.6003 150.271 69.9762 150.805 69.9053L153.025 69.6106L153.683 74.5651L151.463 74.8598C150.928 74.9308 150.552 75.4217 150.623 75.9563C150.694 76.491 151.185 76.8668 151.72 76.7958L153.94 76.5012L154.286 79.1087C154.409 80.0336 155.258 80.684 156.183 80.5612L164.65 79.4372L155.025 6.92111L146.557 8.04507C145.632 8.16786 144.982 9.01729 145.105 9.94227ZM158.296 77.2993C157.359 77.4238 156.485 76.9757 156.011 76.2276L157.663 76.0084C158.197 75.9375 158.573 75.4465 158.502 74.9119C158.431 74.3772 157.94 74.0014 157.406 74.0724L155.752 74.2919C156.014 73.4481 156.741 72.7857 157.681 72.661C158.957 72.4916 160.132 73.3914 160.302 74.6678C160.473 75.9544 159.573 77.1299 158.296 77.2993ZM157.382 70.4086C156.444 70.5331 155.57 70.085 155.097 69.3369L156.748 69.1177C157.283 69.0468 157.658 68.5558 157.588 68.0212C157.517 67.4866 157.026 67.1107 156.491 67.1817L154.837 67.4012C155.099 66.5574 155.827 65.895 156.766 65.7703C158.042 65.6009 159.218 66.5007 159.387 67.7771C159.558 69.0637 158.658 70.2392 157.382 70.4086ZM156.467 63.5179C155.529 63.6424 154.656 63.1943 154.182 62.4462L155.833 62.227C156.368 62.1561 156.744 61.6651 156.673 61.1305C156.602 60.5959 156.111 60.22 155.576 60.291L153.923 60.5105C154.184 59.6667 154.912 59.0041 155.851 58.8795C157.128 58.71 158.303 59.61 158.472 60.8863C158.643 62.173 157.743 63.3485 156.467 63.5179ZM155.552 56.6271C154.615 56.7515 153.741 56.3035 153.267 55.5555L154.919 55.3363C155.453 55.2653 155.829 54.7744 155.758 54.2398C155.687 53.7052 155.196 53.3293 154.662 53.4003L153.008 53.6198C153.27 52.7759 153.997 52.1134 154.937 51.9888C156.213 51.8193 157.388 52.7193 157.558 53.9956C157.729 55.2823 156.829 56.4577 155.552 56.6271ZM154.638 49.7364C153.7 49.8608 152.826 49.4128 152.353 48.6648L154.004 48.4456C154.539 48.3746 154.914 47.8837 154.843 47.3491C154.772 46.8145 154.281 46.4386 153.747 46.5096L152.093 46.7291C152.355 45.8852 153.083 45.2227 154.022 45.0981C155.298 44.9286 156.474 45.8286 156.643 47.1049C156.814 48.3915 155.914 49.567 154.638 49.7364ZM153.723 42.8457C152.785 42.9701 151.912 42.5221 151.438 41.7741L153.089 41.5549C153.624 41.4839 154 40.993 153.929 40.4584C153.858 39.9238 153.367 39.5479 152.832 39.6189L151.179 39.8384C151.44 38.9945 152.168 38.332 153.107 38.2074C154.384 38.0379 155.559 38.9379 155.728 40.2142C155.899 41.5008 154.999 42.6762 153.723 42.8457ZM152.808 35.9548C151.871 36.0793 150.997 35.6312 150.523 34.8833L152.175 34.6641C152.709 34.5931 153.085 34.1021 153.014 33.5675C152.943 33.0328 152.452 32.6571 151.918 32.728L150.264 32.9475C150.526 32.1037 151.253 31.4412 152.192 31.3165C153.469 31.1471 154.644 32.0471 154.814 33.3233C154.985 34.6099 154.085 35.7854 152.808 35.9548ZM151.894 29.0641C150.956 29.1886 150.082 28.7405 149.608 27.9924L151.26 27.7732C151.795 27.7023 152.17 27.2113 152.099 26.6767C152.028 26.1421 151.537 25.7662 151.003 25.8372L149.349 26.0567C149.611 25.2129 150.338 24.5503 151.278 24.4257C152.554 24.2562 153.729 25.1562 153.899 26.4325C154.07 27.7192 153.17 28.8947 151.894 29.0641ZM150.979 22.1734C150.041 22.2979 149.168 21.8498 148.694 21.1017L150.345 20.8825C150.88 20.8116 151.256 20.3206 151.185 19.786C151.114 19.2514 150.623 18.8755 150.088 18.9465L148.434 19.166C148.696 18.3222 149.424 17.6598 150.363 17.5351C151.639 17.3657 152.815 18.2657 152.984 19.5419C153.155 20.8285 152.255 22.004 150.979 22.1734ZM149.448 10.6442C150.725 10.4748 151.9 11.3747 152.07 12.6511C152.24 13.9378 151.341 15.1133 150.064 15.2827C149.127 15.4072 148.253 14.9591 147.779 14.211L149.43 13.9918C149.965 13.9209 150.341 13.4299 150.27 12.8953C150.199 12.3607 149.708 11.9848 149.173 12.0558L147.52 12.2753C147.781 11.4313 148.509 10.7689 149.448 10.6442Z" fill="#9B8BFF"/>
<path d="M198.381 1.16227L156.564 6.71322L166.191 79.238L208.008 73.687C208.934 73.5641 209.582 72.7087 209.459 71.7828L200.279 2.62199C200.156 1.69616 199.307 1.03937 198.381 1.16227ZM195.223 25.2751C195.345 26.2001 194.695 27.0495 193.77 27.1723L169.475 30.3973C168.55 30.5201 167.701 29.8697 167.578 28.9447L165.715 14.9071C165.592 13.982 166.242 13.1327 167.167 13.0099L191.462 9.78491C192.387 9.6621 193.236 10.3125 193.359 11.2374L195.223 25.2751Z" fill="#594AB7"/>
<path d="M190.229 13.2593L169.263 16.0424C168.638 16.1254 168.198 16.7 168.281 17.3258C168.364 17.9516 168.938 18.3915 169.564 18.3085L190.53 15.5254C191.156 15.4423 191.596 14.8677 191.513 14.2419C191.43 13.6161 190.855 13.1762 190.229 13.2593Z" fill="#4938B5"/>
<path d="M190.801 17.5665L169.835 20.3496C169.209 20.4327 168.77 21.0073 168.853 21.6329C168.936 22.2588 169.51 22.6987 170.136 22.6156L191.102 19.8325C191.728 19.7494 192.168 19.1749 192.085 18.549C192.002 17.9234 191.427 17.4835 190.801 17.5665Z" fill="#4938B5"/>
<path d="M187.695 22.362L174.085 24.1685C173.46 24.2516 173.02 24.8262 173.103 25.452C173.186 26.0776 173.76 26.5175 174.386 26.4345L187.995 24.628C188.621 24.5449 189.061 23.9703 188.978 23.3446C188.895 22.719 188.32 22.2789 187.695 22.362Z" fill="#4938B5"/>
</g>
<g clip-path="url(#clip1_6_333)">
<path d="M485.336 135.437L483.604 146.182C483.277 148.206 484.654 150.112 486.678 150.438C488.702 150.765 490.608 149.388 490.934 147.364L496.976 109.888L491.189 108.955C490.337 108.817 489.534 109.397 489.397 110.25L485.336 135.437Z" fill="#9B8BFF"/>
<path d="M572.52 87.9224L508.518 77.6038C507.665 77.4664 506.862 78.0462 506.725 78.8989L501.608 110.634L496.061 145.044L495.192 150.436C494.66 153.734 491.551 155.976 488.247 155.444L553.118 165.902C557.647 166.633 561.91 163.559 562.639 159.037L573.815 89.7153C573.953 88.8625 573.373 88.0598 572.52 87.9224ZM538.238 91.9112C538.682 91.9829 539.029 92.1906 539.078 92.5971L540.364 102.541L542.836 96.5244C543.028 96.0428 543.718 95.8885 544.348 95.99C544.978 96.0916 545.585 96.4551 545.616 96.9725L546.071 103.461L550.418 94.4254C550.592 94.0549 550.986 93.9666 551.431 94.0383C552.265 94.1727 553.219 94.8578 553.117 95.4869C553.103 95.5794 553.069 95.6689 553.042 95.7214L547.535 106.411C547.208 107.023 546.324 107.203 545.471 107.066C544.638 106.931 543.799 106.473 543.755 105.802L543.498 101.262L541.828 105.491C541.575 106.115 540.635 106.286 539.801 106.151C538.949 106.014 538.147 105.562 538.048 104.882L536.18 93.0029C536.17 92.9445 536.166 92.8489 536.181 92.7564C536.283 92.1275 537.404 91.7768 538.238 91.9112ZM526.44 90.9203C526.536 90.3283 527.214 90.1339 527.843 90.2355L534.44 91.299C535.052 91.3976 535.207 92.0868 535.111 92.6788C535.001 93.3632 534.591 93.9044 534.035 93.8148L529.068 93.0141L528.564 96.1405L531.344 96.5885C531.9 96.6782 532.128 97.2655 532.033 97.8575C531.952 98.357 531.597 98.9071 530.986 98.8085L528.206 98.3604L527.699 101.505L532.665 102.306C533.221 102.396 533.441 103.038 533.331 103.723C533.235 104.315 532.871 104.92 532.26 104.822L525.663 103.758C525.033 103.657 524.451 103.259 524.546 102.667L526.44 90.9203L526.44 90.9203ZM514.23 88.9517C514.328 88.3412 515.096 88.1803 515.818 88.2968C516.856 88.4641 517.23 88.6193 517.717 90.0832L519.797 96.2834L520.811 89.9939C520.909 89.3834 521.674 89.2409 522.396 89.3574C523.119 89.474 523.8 89.8494 523.702 90.4599L521.805 102.225C521.709 102.817 520.939 102.997 520.216 102.88C519.549 102.773 518.977 102.547 518.729 101.843L516.241 94.875L515.227 101.165C515.131 101.757 514.361 101.936 513.638 101.82C512.916 101.703 512.24 101.291 512.336 100.699L514.23 88.9517L514.23 88.9517ZM521.709 151.112L506.637 148.682C505.358 148.475 504.488 147.271 504.694 145.992C504.9 144.713 506.104 143.843 507.383 144.05L522.456 146.48C523.735 146.686 524.605 147.89 524.398 149.169C524.192 150.448 522.988 151.318 521.709 151.112ZM523.2 141.862L508.128 139.432C506.849 139.226 505.979 138.021 506.185 136.742C506.392 135.463 507.596 134.594 508.875 134.8L523.947 137.23C525.226 137.436 526.096 138.64 525.89 139.919C525.684 141.198 524.479 142.068 523.2 141.862ZM524.692 132.612L509.619 130.182C508.34 129.976 507.47 128.772 507.677 127.493C507.883 126.214 509.087 125.344 510.366 125.55L525.438 127.98C526.717 128.186 527.587 129.39 527.381 130.669C527.175 131.948 525.971 132.818 524.692 132.612ZM553.959 153.935C553.753 155.214 552.548 156.084 551.269 155.877L530.973 152.605C529.694 152.399 528.824 151.195 529.031 149.916L532.013 131.416C532.219 130.137 533.424 129.267 534.703 129.474L554.999 132.746C556.278 132.952 557.148 134.156 556.941 135.435L553.959 153.935ZM555.743 128.128L511.11 120.932C509.831 120.726 508.962 119.522 509.168 118.243C509.374 116.964 510.578 116.094 511.857 116.3L556.49 123.496C557.769 123.702 558.639 124.906 558.433 126.186C558.226 127.465 557.022 128.334 555.743 128.128ZM557.234 118.878L512.602 111.683C511.323 111.476 510.453 110.272 510.659 108.993C510.865 107.714 512.069 106.844 513.348 107.051L557.981 114.246C559.26 114.452 560.13 115.657 559.924 116.936C559.718 118.215 558.514 119.084 557.234 118.878ZM556.706 108.953C554.279 108.562 552.431 107.049 552.628 105.828C552.729 105.199 553.434 104.364 554.139 104.477C555.01 104.618 555.345 106.076 557.068 106.354C557.92 106.491 558.919 106.311 559.062 105.423C559.423 103.184 553.487 102.626 554.184 98.2971C554.632 95.5222 557.229 94.8592 559.546 95.2326C560.528 95.3909 563.203 96.0121 562.97 97.4549C562.89 97.9544 562.392 98.918 561.577 98.7866C560.91 98.679 560.671 97.9193 559.152 97.6743C557.836 97.4622 557.212 97.9121 557.12 98.4856C556.822 100.335 562.752 100.931 562.001 105.593C561.571 108.257 559.393 109.386 556.706 108.953Z" fill="#594AB7"/>
</g>
<g clip-path="url(#clip2_6_333)">
<path d="M768.955 195.323C768.953 195.323 768.95 195.324 768.948 195.324C768.143 195.456 767.437 195.894 766.958 196.559C766.475 197.231 766.282 198.051 766.417 198.869L773.919 244.561C774.194 246.237 775.787 247.378 777.47 247.107C784.565 245.959 796.691 245.486 806.297 252.719L798.446 204.901C798.353 204.333 798.12 203.823 797.774 203.426C789.267 193.696 776.067 194.172 768.955 195.323Z" fill="#594AB7"/>
<path d="M839.099 233.859L831.596 188.167C831.462 187.349 831.017 186.633 830.344 186.151C829.679 185.675 828.869 185.485 828.065 185.617C828.062 185.618 828.059 185.618 828.057 185.618C820.951 186.803 808.292 190.572 803.343 202.512C803.141 202.999 803.084 203.556 803.177 204.124L811.028 251.942C817.818 242.017 829.458 238.588 836.548 237.406C838.23 237.126 839.374 235.535 839.099 233.859Z" fill="#594AB7"/>
<path d="M839.766 194.518L837.557 194.88L843.829 233.083C844.532 237.361 841.619 241.421 837.336 242.135C831.322 243.138 821.596 245.943 815.662 253.745C827.324 248.775 840.45 248.606 848.023 249.071C848.969 249.129 849.875 248.76 850.51 248.058C851.142 247.358 851.417 246.422 851.264 245.49L843.313 197.064C843.038 195.384 841.446 194.242 839.766 194.518Z" fill="#9B8BFF"/>
<path d="M769.188 245.338L762.915 207.136L760.706 207.499C759.026 207.774 757.884 209.366 758.159 211.045L766.11 259.471C766.263 260.402 766.823 261.202 767.646 261.663C768.471 262.125 769.448 262.185 770.327 261.827C777.353 258.965 789.845 254.928 802.483 255.908C794.366 250.413 784.253 250.866 778.235 251.839C773.949 252.532 769.89 249.616 769.188 245.338Z" fill="#9B8BFF"/>
</g>
<g clip-path="url(#clip3_6_333)">
<path d="M1307.09 216.177L1308.86 217.332C1308.9 217.358 1312.95 219.973 1317.08 220.455C1321.2 220.937 1325.76 219.329 1325.8 219.31C1326.03 219.231 1331.44 217.3 1336.71 217.916C1339.69 218.265 1343.58 219.571 1347.52 222.128L1340.29 207.937L1343.87 177.348L1348.64 177.905L1349.19 173.137L1315.82 169.236L1315.26 174.004L1320.03 174.561L1316.45 205.15L1307.09 216.177ZM1325.62 209.371L1330.39 209.928L1329.83 214.696L1325.07 214.139L1325.62 209.371Z" fill="#594AB7"/>
<path d="M1359.46 245.58L1351.9 230.74L1344.37 225.807C1344.33 225.781 1340.28 223.167 1336.15 222.684C1332.03 222.202 1327.47 223.811 1327.43 223.829C1327.2 223.909 1321.79 225.839 1316.52 225.223C1311.25 224.607 1306.43 221.481 1306.23 221.348L1303.96 219.865L1289.14 237.336C1287.4 239.337 1286.91 242.117 1287.87 244.59C1288.84 247.088 1291.1 248.834 1293.76 249.146L1352.22 255.979C1354.89 256.291 1357.49 255.113 1359 252.904C1360.51 250.72 1360.68 247.903 1359.46 245.58ZM1317.51 237.422L1312.74 236.865L1313.3 232.097L1318.07 232.654L1317.51 237.422ZM1326.49 243.305L1321.72 242.748L1322.28 237.979L1327.05 238.537L1326.49 243.305ZM1337.14 234.883L1332.37 234.326L1332.93 229.558L1337.7 230.115L1337.14 234.883Z" fill="#9B8BFF"/>
</g>
<defs>
<clipPath id="clip0_6_333">
<rect width="73.1574" height="73.1574" fill="white" transform="translate(134.612 9.62712) rotate(-7.56138)"/>
</clipPath>
<clipPath id="clip1_6_333">
<rect width="80.0701" height="80.0701" fill="white" transform="translate(495.011 75.4262) rotate(9.15849)"/>
</clipPath>
<clipPath id="clip2_6_333">
<rect width="86.2899" height="86.2899" fill="white" transform="translate(754.279 187.412) rotate(-9.32416)"/>
</clipPath>
<clipPath id="clip3_6_333">
<rect width="81.926" height="81.926" fill="white" transform="translate(1291.82 166.431) rotate(6.667)"/>
</clipPath>
</defs>
</svg>
