<svg width="272" height="60" viewBox="0 0 272 60" fill="none" xmlns="http://www.w3.org/2000/svg">
<path d="M4.52361 31.7647V47.4234H0V3.92709H16.0563C18.8401 3.92709 20.9942 4.35791 22.5186 5.21955C24.0099 6.08119 25.0704 7.50622 25.7001 9.49462C26.3297 11.5162 26.6446 14.3828 26.6446 18.0944C26.6446 21.5079 26.3463 24.1922 25.7498 26.1475C25.1201 28.1359 24.1094 29.5609 22.7175 30.4225C21.3256 31.3173 19.4532 31.7647 17.1002 31.7647H4.52361ZM4.52361 27.8376H16.4043C18.4921 27.8376 19.9337 27.6388 20.7291 27.2411C21.5244 26.8103 21.9221 26.0481 21.9221 24.9544V10.5882C21.9221 9.49462 21.5244 8.7324 20.7291 8.30158C19.9337 7.87076 18.4921 7.65535 16.4043 7.65535H4.52361V27.8376ZM47.0257 12.0795C50.0414 12.0795 52.3778 12.3447 54.0348 12.8749C55.7249 13.4383 56.918 14.3496 57.6139 15.6089C58.3099 16.8683 58.6578 18.6247 58.6578 20.8782V47.4234H56.7688L55.4267 43.9437C53.8028 45.3355 51.9967 46.3463 50.0083 46.976C47.9867 47.6388 45.5841 47.9702 42.8003 47.9702C39.0886 47.9702 36.4706 47.2245 34.9461 45.7332C33.4548 44.2419 32.7092 41.6736 32.7092 38.0282C32.7092 34.449 33.1234 31.947 33.9519 30.522C34.7804 29.1301 36.5369 28.2022 39.2212 27.7382C41.9056 27.3074 46.6611 27.092 53.488 27.092H54.1839V16.8517C52.063 16.222 49.3123 15.9072 45.9321 15.9072C42.2867 15.9072 38.5916 16.454 34.8467 17.5476L34.2005 14.0182C35.5592 13.4548 37.4814 12.9909 39.9669 12.6263C42.4524 12.2618 44.8053 12.0795 47.0257 12.0795ZM48.3679 44.0928C50.6214 44.0928 52.1624 43.778 52.9909 43.1483C53.7862 42.5186 54.1839 41.3256 54.1839 39.5692V30.7705H42.7009C40.3811 30.7705 38.807 31.0853 37.9785 31.715C37.15 32.3447 36.7357 33.5211 36.7357 35.2444V44.0928H48.3679ZM87.937 12.0795C91.4167 12.0795 93.9685 12.5104 95.5924 13.372C97.1831 14.2668 98.2602 15.9238 98.8235 18.343C99.3538 20.7954 99.6189 24.6893 99.6189 30.0249C99.6189 35.3935 99.3372 39.3372 98.7738 41.8558C98.1773 44.3413 97.0837 46.0646 95.493 47.0257C93.9022 47.9868 91.3836 48.4673 87.937 48.4673C85.1533 48.4673 82.9495 48.3181 81.3256 48.0199C79.6686 47.7548 78.343 47.2577 77.3488 46.5286V59.2544L72.8252 60V12.6263H74.7142L75.9569 15.4598C76.8186 14.0679 78.1276 13.1566 79.884 12.7258C81.6404 12.2949 84.3248 12.0795 87.937 12.0795ZM95.0456 42.7506V16.1061H80.7291C79.4698 16.1061 78.5916 16.1889 78.0945 16.3546C77.5974 16.5203 77.3488 16.8351 77.3488 17.2991V44.4408H91.6156C93.0075 44.4408 93.9354 44.3248 94.3993 44.0928C94.8302 43.894 95.0456 43.4466 95.0456 42.7506ZM122.386 44.1425C124.242 44.1425 126.048 44.0265 127.804 43.7945C129.594 43.5626 131.781 43.1152 134.366 42.4524L135.012 46.0315C133.521 46.628 131.516 47.1085 128.998 47.4731C126.512 47.8045 123.911 47.9702 121.193 47.9702C117.78 47.9702 115.261 47.4896 113.637 46.5286C112.013 45.6007 110.903 43.894 110.307 41.4085C109.743 38.9561 109.461 35.1616 109.461 30.0249C109.461 25.1533 109.826 21.4582 110.555 18.9395C111.317 16.454 112.626 14.681 114.482 13.6205C116.371 12.5932 119.155 12.0795 122.833 12.0795C126.379 12.0795 129.08 12.3447 130.936 12.8749C132.759 13.4383 134.035 14.4159 134.764 15.8078C135.526 17.1997 135.907 19.2709 135.907 22.0215C135.907 25.6007 135.46 28.0862 134.565 29.478C133.703 30.9031 131.864 31.831 129.047 32.2618C126.23 32.7258 121.259 32.9577 114.134 32.9577V43.1483C116.255 43.8111 119.006 44.1425 122.386 44.1425ZM120.149 16.2552C117.796 16.2552 116.205 16.57 115.377 17.1997C114.548 17.7962 114.134 18.9892 114.134 20.7788V29.2295H125.617C128.003 29.2295 129.627 28.9312 130.489 28.3347C131.35 27.7382 131.781 26.5617 131.781 24.8053V16.2552H120.149ZM150.721 12.6263L152.659 18.4424C154.979 16.4209 156.868 14.8799 158.326 13.8194C159.751 12.792 160.978 12.0464 162.005 11.5824L162.601 16.0066C159.089 17.2659 155.99 18.9727 153.306 21.1268V47.4234H148.782V12.6263H150.721ZM182.734 12.0795C185.75 12.0795 188.086 12.3447 189.743 12.8749C191.433 13.4383 192.626 14.3496 193.322 15.6089C194.018 16.8683 194.366 18.6247 194.366 20.8782V47.4234H192.477L191.135 43.9437C189.511 45.3355 187.705 46.3463 185.717 46.976C183.695 47.6388 181.292 47.9702 178.509 47.9702C174.797 47.9702 172.179 47.2245 170.655 45.7332C169.163 44.2419 168.418 41.6736 168.418 38.0282C168.418 34.449 168.832 31.947 169.66 30.522C170.489 29.1301 172.245 28.2022 174.93 27.7382C177.614 27.3074 182.37 27.092 189.196 27.092H189.892V16.8517C187.771 16.222 185.021 15.9072 181.64 15.9072C177.995 15.9072 174.3 16.454 170.555 17.5476L169.909 14.0182C171.268 13.4548 173.19 12.9909 175.675 12.6263C178.161 12.2618 180.514 12.0795 182.734 12.0795ZM184.076 44.0928C186.33 44.0928 187.871 43.778 188.699 43.1483C189.495 42.5186 189.892 41.3256 189.892 39.5692V30.7705H178.409C176.089 30.7705 174.515 31.0853 173.687 31.715C172.858 32.3447 172.444 33.5211 172.444 35.2444V44.0928H184.076ZM228.517 0.795362L233.041 0V47.4234H231.152L230.008 44.7887C229.213 46.2138 227.97 47.1748 226.28 47.6719C224.623 48.2022 222.171 48.4673 218.923 48.4673C215.079 48.4673 212.295 48.0365 210.572 47.1748C208.848 46.3132 207.688 44.6396 207.092 42.1541C206.495 39.6686 206.197 35.6255 206.197 30.0249C206.197 24.855 206.479 21.0439 207.042 18.5916C207.573 16.1392 208.616 14.4325 210.174 13.4714C211.698 12.5435 214.051 12.0795 217.233 12.0795C220.348 12.0795 222.767 12.1955 224.49 12.4275C226.214 12.6926 227.556 13.2229 228.517 14.0182V0.795362ZM228.517 42.7506V16.1061H214.201C212.842 16.1061 211.947 16.2055 211.516 16.4043C211.085 16.6031 210.87 17.0505 210.87 17.7465V44.4408H225.137C226.529 44.4408 227.44 44.3248 227.871 44.0928C228.302 43.894 228.517 43.4466 228.517 42.7506ZM258.094 44.1425C259.95 44.1425 261.756 44.0265 263.513 43.7945C265.302 43.5626 267.49 43.1152 270.075 42.4524L270.721 46.0315C269.229 46.628 267.225 47.1085 264.706 47.4731C262.22 47.8045 259.619 47.9702 256.901 47.9702C253.488 47.9702 250.969 47.4896 249.345 46.5286C247.722 45.6007 246.611 43.894 246.015 41.4085C245.452 38.9561 245.17 35.1616 245.17 30.0249C245.17 25.1533 245.534 21.4582 246.263 18.9395C247.026 16.454 248.335 14.681 250.191 13.6205C252.08 12.5932 254.863 12.0795 258.542 12.0795C262.088 12.0795 264.789 12.3447 266.645 12.8749C268.467 13.4383 269.743 14.4159 270.472 15.8078C271.234 17.1997 271.616 19.2709 271.616 22.0215C271.616 25.6007 271.168 28.0862 270.273 29.478C269.412 30.9031 267.573 31.831 264.756 32.2618C261.939 32.7258 256.968 32.9577 249.843 32.9577V43.1483C251.964 43.8111 254.714 44.1425 258.094 44.1425ZM255.858 16.2552C253.505 16.2552 251.914 16.57 251.085 17.1997C250.257 17.7962 249.843 18.9892 249.843 20.7788V29.2295H261.326C263.712 29.2295 265.336 28.9312 266.197 28.3347C267.059 27.7382 267.49 26.5617 267.49 24.8053V16.2552H255.858Z" fill="#E7E7E6"/>
</svg>
